<svg xmlns="http://www.w3.org/2000/svg" viewBox="0 0 32 32" width="32" height="32">
  <rect width="32" height="32" rx="7" fill="#F64060"/>
  <path
    d="M7 21.5V12.8c0-.7.4-1.3 1-1.6l.5-.2c.6-.2 1.3 0 1.7.5l3.6 4.8 3.6-4.8c.4-.5 1.1-.7 1.7-.5l.5.2c.6.3 1 .9 1 1.6v8.7c0 .8-.7 1.5-1.5 1.5s-1.5-.7-1.5-1.5v-5.3l-2.5 3.3c-.3.4-.7.6-1.2.6s-.9-.2-1.2-.6l-2.5-3.3v5.3c0 .8-.7 1.5-1.5 1.5S7 22.3 7 21.5z"
    fill="white"
  />
  <circle cx="24" cy="10.5" r="2.5" fill="#F64060" stroke="white" stroke-width="1.5"/>
</svg>
